<svg width="27" height="24" viewBox="0 0 27 24" fill="none" xmlns="http://www.w3.org/2000/svg">
<path d="M13.5 24C13.1156 24 12.745 23.8609 12.4562 23.6081C11.3655 22.6552 10.3139 21.7598 9.3861 20.9698L9.38136 20.9657C6.66122 18.6497 4.31227 16.6497 2.67792 14.6795C0.85096 12.4769 0 10.3885 0 8.10709C0 5.89051 0.760735 3.84557 2.14192 2.34871C3.53959 0.834151 5.45739 0 7.54266 0C9.10121 0 10.5285 0.492299 11.7849 1.46311C12.4189 1.95314 12.9937 2.55288 13.5 3.25243C14.0065 2.55288 14.5811 1.95314 15.2153 1.46311C16.4717 0.492299 17.899 0 19.4575 0C21.5426 0 23.4606 0.834151 24.8583 2.34871C26.2395 3.84557 27 5.89051 27 8.10709C27 10.3885 26.1492 12.4769 24.3223 14.6792C22.688 16.6496 20.3394 18.6493 17.6199 20.965L17.6195 20.9653C16.69 21.7565 15.6368 22.6534 14.5436 23.6085C14.255 23.8609 13.8842 24 13.5 24ZM7.54266 1.58021C5.9044 1.58021 4.39941 2.23346 3.30455 3.41975C2.19342 4.62395 1.58141 6.28855 1.58141 8.10709C1.58141 10.0259 2.29518 11.7419 3.89555 13.6712C5.44205 15.5357 7.74221 17.4942 10.4055 19.7619L10.407 19.7632L10.412 19.7673C11.3432 20.5603 12.399 21.4593 13.4977 22.4192C14.6031 21.4574 15.6605 20.557 16.5936 19.7628L16.6008 19.7567C19.2614 17.491 21.5592 15.5344 23.1047 13.6712C24.7048 11.7419 25.4186 10.0259 25.4186 8.10709C25.4186 6.28855 25.0729 4.81676 23.6955 3.41975C22.4358 2.14223 21.0956 1.58021 19.4575 1.58021C18.2574 1.58021 17.1556 1.96138 16.1827 2.713C15.3156 3.38312 14.7117 4.23023 14.3576 4.82297C14.1755 5.12777 13.8549 5.30971 13.5 5.30971C13.1451 5.30971 12.8245 5.12777 12.6424 4.82297C12.2886 4.23023 11.6846 3.38312 10.8173 2.713C9.84444 1.96138 8.74258 1.58021 7.54266 1.58021Z" fill="#737373"/>
<path d="M13.5 24C13.1156 24 12.745 23.8609 12.4562 23.6081C11.3655 22.6552 10.3139 21.7598 9.3861 20.9698L9.38136 20.9657C6.66122 18.6497 4.31227 16.6497 2.67792 14.6795C0.85096 12.4769 0 10.3885 0 8.10709C0 5.89051 0.760735 3.84557 2.14192 2.34871C3.53959 0.834151 5.45739 0 7.54266 0C9.10121 0 10.5285 0.492299 11.7849 1.46311C12.4189 1.95314 12.9937 2.55288 13.5 3.25243C14.0065 2.55288 14.5811 1.95314 15.2153 1.46311C16.4717 0.492299 17.899 0 19.4575 0C21.5426 0 23.4606 0.834151 24.8583 2.34871C26.2395 3.84557 27 5.89051 27 8.10709C27 10.3885 26.1492 12.4769 24.3223 14.6792C22.688 16.6496 20.3394 18.6493 17.6199 20.965L17.6195 20.9653C16.69 21.7565 15.6368 22.6534 14.5436 23.6085C14.255 23.8609 13.8842 24 13.5 24ZM7.54266 1.58021C5.9044 1.58021 4.39941 2.23346 3.30455 3.41975C2.19342 4.62395 1.58141 6.28855 1.58141 8.10709C1.58141 10.0259 2.29518 11.7419 3.89555 13.6712C5.44205 15.5357 7.74221 17.4942 10.4055 19.7619L10.407 19.7632L10.412 19.7673C11.3432 20.5603 12.399 21.4593 13.4977 22.4192C14.6031 21.4574 15.6605 20.557 16.5936 19.7628L16.6008 19.7567C19.2614 17.491 21.5592 15.5344 23.1047 13.6712C24.7048 11.7419 25.4186 10.0259 25.4186 8.10709C25.4186 6.28855 25.0729 4.81676 23.6955 3.41975C22.4358 2.14223 21.0956 1.58021 19.4575 1.58021C18.2574 1.58021 17.1556 1.96138 16.1827 2.713C15.3156 3.38312 14.7117 4.23023 14.3576 4.82297C14.1755 5.12777 13.8549 5.30971 13.5 5.30971C13.1451 5.30971 12.8245 5.12777 12.6424 4.82297C12.2886 4.23023 11.6846 3.38312 10.8173 2.713C9.84444 1.96138 8.74258 1.58021 7.54266 1.58021Z" stroke="white"/>
</svg>
